<svg width="110" height="49" viewBox="0 0 110 49" fill="none" xmlns="http://www.w3.org/2000/svg">
<g clip-path="url(#clip0_69_2)">
<path d="M19.6223 17.169C22.637 16.94 25.6541 16.7472 28.671 16.6364C29.071 16.6216 29.4653 16.6251 29.8553 16.6388C30.1191 16.648 30.3825 16.6636 30.6454 16.6857C31.5768 16.7656 32.4812 16.9278 33.3591 17.1705C29.5056 14.0829 24.4899 12.0758 19.7447 12.0758C17.1344 12.0758 14.9365 12.6856 13.2592 13.7454C14.6586 13.1196 16.3414 12.77 18.2602 12.77C21.4568 12.77 24.7835 13.7356 27.7501 15.3467L12.1047 17.349L19.6223 17.169ZM35.1594 33.6586C33.4983 35.2647 30.9576 36.227 27.7669 36.227C25.8478 36.227 23.8821 35.8774 21.975 35.2516C24.5116 36.3114 27.2036 36.9212 29.8135 36.9212C33.1708 36.9212 35.8481 35.9152 37.6063 34.2343C36.9853 34.1578 36.3715 34.0317 35.7711 33.8573C35.5678 33.7979 35.3633 33.7308 35.1594 33.6586ZM41.2211 32.0146C40.6337 32.1075 39.9188 32.1848 39.1323 32.1824C38.3182 32.18 37.4277 32.09 36.5209 31.8426C34.8629 31.3902 33.1528 30.4082 31.7636 28.449L8.02677 24.1967L8.05444 24.2704L31.0024 29.5543C31.0024 29.5543 32.4776 31.9222 35.8196 32.9279C36.5796 33.1569 37.4367 33.3138 38.3949 33.3574C39.2806 33.3978 40.2508 33.3435 41.3137 33.1534C43.5281 32.709 44.151 30.5107 44.151 30.5107C44.151 30.5107 43.5278 31.6498 41.2211 32.0146Z" fill="#059669"/>
<path d="M44.1504 28.9234C42.6475 23.7764 38.8785 20.9425 36.4614 19.3834C35.9856 19.0779 35.4857 18.811 34.9663 18.5852C33.4397 17.9178 32.0192 17.704 31.1359 17.595C30.9522 17.5724 30.7895 17.5537 30.6562 17.5367C28.6217 17.2774 9.18225 18.9545 7.18135 19.1282C7.2021 18.8184 7.23759 18.5143 7.28722 18.216C8.06256 13.5479 12.3044 10.3376 18.7137 10.3376C21.0307 10.3376 23.4039 10.7597 25.7062 11.5156C22.6442 10.236 19.394 9.5 16.2424 9.5C6.70015 9.5 1.68601 16.215 5.04301 24.4985C8.4003 32.7821 18.8571 39.497 28.3997 39.497C31.5513 39.497 34.2045 38.761 36.2298 37.4814C34.5401 38.2373 32.5086 38.6594 30.1919 38.6594C22.012 38.6594 13.1209 33.4323 9.18075 26.6163C8.96901 26.248 8.77068 25.8723 8.58616 25.49L33.7702 33.1762C31.9711 32.3561 30.6328 30.4881 30.6328 30.4881L8.51068 25.3367C8.3794 25.0607 8.25585 24.7812 8.14015 24.4985C8.10917 24.4219 8.08361 24.3464 8.05413 24.2701L8.02646 24.1964C7.87214 23.7948 7.73567 23.3867 7.61744 22.9733L8.7191 23.1699V20.4182H7.17714C7.15175 19.9928 7.15285 19.5663 7.18045 19.141C8.9194 19.1241 23.7197 18.994 25.12 19.3474C26.6081 19.7238 33.0785 29.6677 36.3308 30.5564C36.5432 30.6147 36.7636 30.666 36.9892 30.7118C37.8217 30.8799 38.7302 30.9646 39.6132 30.9657C42.1573 30.9696 44.4866 30.2841 44.1504 28.9234ZM37.1898 29.9238C35.1236 29.3751 33.7702 27.7088 33.7702 27.7088C33.7702 27.7088 35.2695 27.7317 37.1149 28.1645C37.1925 28.1826 37.2623 28.2049 37.3341 28.2265C38.9696 28.7193 39.1218 30.0553 39.1218 30.0553C38.4298 30.1465 37.7805 30.0806 37.1898 29.9238ZM39.8463 24.9669L39.1335 25.0486L39.1044 25.0522L38.9498 25.07L36.8186 25.3145L34.2211 25.613C34.2211 25.613 33.1395 25.8711 32.3432 24.972C31.8114 24.3723 30.4274 22.8099 29.5648 21.8359C29.1341 21.35 29.3804 20.905 30.1705 20.7654C31.2045 20.5822 32.6547 20.3401 33.8406 20.1993C34.8331 20.0814 35.6406 20.0336 35.8638 20.1512C35.9474 20.1951 36.0598 20.2608 36.194 20.344C36.2487 20.3781 36.3062 20.4144 36.3681 20.455C36.4998 20.5409 36.6487 20.6428 36.8084 20.7565C37.7811 21.4483 39.2208 22.6433 40.4611 24.2241C40.9585 24.8582 39.8463 24.9669 39.8463 24.9669ZM42.5221 29.7717C42.5221 29.7717 42.578 28.3546 43.385 27.6488C43.385 27.6488 44.4635 29.5551 42.5221 29.7717Z" fill="#1C1C1A"/>
<path d="M12.2484 23.8002L14.7398 24.2451V20.4185H12.2484V23.8002ZM9.4806 23.3056L11.4875 23.6642V20.4185H9.4806V23.3056ZM22.006 20.4185H19.757V25.1407L25.9735 26.2507C25.9738 26.251 24.3242 20.4185 22.006 20.4185ZM15.5011 24.3809L18.9958 25.005V20.4188H15.5011V24.3809Z" fill="#1C1C1A"/>
</g>
<path d="M67.7166 7.362V11.358H57.4566V45H52.5426V11.358H42.2286V7.362H67.7166Z" fill="#059669"/>
<path d="M69.768 29L66.116 22.73H63.696V29H61.694V13.666H66.644C67.8027 13.666 68.778 13.864 69.57 14.26C70.3767 14.656 70.978 15.1913 71.374 15.866C71.77 16.5407 71.968 17.3107 71.968 18.176C71.968 19.232 71.66 20.1633 71.044 20.97C70.4427 21.7767 69.5333 22.312 68.316 22.576L72.166 29H69.768ZM63.696 21.124H66.644C67.7293 21.124 68.5433 20.86 69.086 20.332C69.6287 19.7893 69.9 19.0707 69.9 18.176C69.9 17.2667 69.6287 16.5627 69.086 16.064C68.558 15.5653 67.744 15.316 66.644 15.316H63.696V21.124ZM84.1428 25.59H77.4548L76.2228 29H74.1108L79.6548 13.754H81.9648L87.4868 29H85.3748L84.1428 25.59ZM83.5708 23.962L80.7988 16.218L78.0268 23.962H83.5708ZM91.905 13.666V29H89.903V13.666H91.905ZM107.373 29H105.371L97.319 16.79V29H95.317V13.644H97.319L105.371 25.832V13.644H107.373V29Z" fill="#059669"/>
<path d="M69.768 45L66.116 38.73H63.696V45H61.694V29.666H66.644C67.8027 29.666 68.778 29.864 69.57 30.26C70.3767 30.656 70.978 31.1913 71.374 31.866C71.77 32.5407 71.968 33.3107 71.968 34.176C71.968 35.232 71.66 36.1633 71.044 36.97C70.4427 37.7767 69.5333 38.312 68.316 38.576L72.166 45H69.768ZM63.696 37.124H66.644C67.7293 37.124 68.5433 36.86 69.086 36.332C69.6287 35.7893 69.9 35.0707 69.9 34.176C69.9 33.2667 69.6287 32.5627 69.086 32.064C68.558 31.5653 67.744 31.316 66.644 31.316H63.696V37.124ZM84.1428 41.59H77.4548L76.2228 45H74.1108L79.6548 29.754H81.9648L87.4868 45H85.3748L84.1428 41.59ZM83.5708 39.962L80.7988 32.218L78.0268 39.962H83.5708ZM101.959 45H99.957L91.905 32.79V45H89.903V29.644H91.905L99.957 41.832V29.644H101.959V45Z" fill="black"/>
<defs>
<clipPath id="clip0_69_2">
<rect width="40" height="30" fill="white" transform="translate(4 9.5)"/>
</clipPath>
</defs>
</svg>
